<svg version="1.2" xmlns="http://www.w3.org/2000/svg" viewBox="0 0 43 44" width="43" height="44">
	<defs>
		<clipPath clipPathUnits="userSpaceOnUse" id="cp1">
			<path d="m42.5 18h-20.5v8.5h11.8c-1.1 5.4-5.7 8.5-11.8 8.5-7.2 0-13-5.8-13-13 0-7.2 5.8-13 13-13 3.1 0 5.9 1.1 8.1 2.9l6.4-6.4c-3.9-3.4-8.9-5.5-14.5-5.5-12.2 0-22 9.8-22 22 0 12.2 9.8 22 22 22 11 0 21-8 21-22 0-1.3-0.2-2.7-0.5-4z"/>
		</clipPath>
		<clipPath clipPathUnits="userSpaceOnUse" id="cp2">
			<path d="m42.5 18h-20.5v8.5h11.8c-1.1 5.4-5.7 8.5-11.8 8.5-7.2 0-13-5.8-13-13 0-7.2 5.8-13 13-13 3.1 0 5.9 1.1 8.1 2.9l6.4-6.4c-3.9-3.4-8.9-5.5-14.5-5.5-12.2 0-22 9.8-22 22 0 12.2 9.8 22 22 22 11 0 21-8 21-22 0-1.3-0.2-2.7-0.5-4z"/>
		</clipPath>
		<clipPath clipPathUnits="userSpaceOnUse" id="cp3">
			<path d="m42.5 18h-20.5v8.5h11.8c-1.1 5.4-5.7 8.5-11.8 8.5-7.2 0-13-5.8-13-13 0-7.2 5.8-13 13-13 3.1 0 5.9 1.1 8.1 2.9l6.4-6.4c-3.9-3.4-8.9-5.5-14.5-5.5-12.2 0-22 9.8-22 22 0 12.2 9.8 22 22 22 11 0 21-8 21-22 0-1.3-0.2-2.7-0.5-4z"/>
		</clipPath>
		<clipPath clipPathUnits="userSpaceOnUse" id="cp4">
			<path d="m42.5 18h-20.5v8.5h11.8c-1.1 5.4-5.7 8.5-11.8 8.5-7.2 0-13-5.8-13-13 0-7.2 5.8-13 13-13 3.1 0 5.9 1.1 8.1 2.9l6.4-6.4c-3.9-3.4-8.9-5.5-14.5-5.5-12.2 0-22 9.8-22 22 0 12.2 9.8 22 22 22 11 0 21-8 21-22 0-1.3-0.2-2.7-0.5-4z"/>
		</clipPath>
	</defs>
	<style>
		.s0 { fill: #fbbc05 } 
		.s1 { fill: #ea4335 } 
		.s2 { fill: #34a853 } 
		.s3 { fill: #4285f4 } 
	</style>
	<g id="Clip-Path" clip-path="url(#cp1)">
		<path class="s0" d="m-2 35v-26l17 13z"/>
	</g>
	<g id="Clip-Path" clip-path="url(#cp2)">
		<path class="s1" d="m-2 9l17 13 7-6.1 24-3.9v-14h-48z"/>
	</g>
	<g id="Clip-Path" clip-path="url(#cp3)">
		<path class="s2" d="m-2 35l30-23 7.9 1 10.1-15v48h-48z"/>
	</g>
	<g id="Clip-Path" clip-path="url(#cp4)">
		<path class="s3" d="m46 46l-31-24-4-3 35-10z"/>
	</g>
</svg>